g LP_California
v 0.1638895 -0.07879329 0.002388278
v 0.1594025 -0.08328031 0.002388279
v -0.1594025 -0.08328031 0.002388279
v -0.1638895 -0.07879329 0.002388278
v 0.1638895 0.07879318 0.002388255
v -0.1638895 0.07879326 0.002388255
v -0.1594025 0.08328026 0.002388254
v 0.1594025 0.08328018 0.002388254
v -0.1638895 0.07879326 0.002388255
v -0.1638895 -0.07879329 0.002388278
v -0.1638134 -0.07879326 4.664063E-08
v -0.1638134 0.07879333 -7.45058E-10
v 0.1594025 0.08328018 0.002388254
v -0.1594025 0.08328026 0.002388254
v -0.1593264 0.08328033 -2.235174E-09
v 0.1594025 0.08328026 -2.235174E-09
v 0.1638895 0.07879318 0.002388255
v 0.1638895 -0.07879326 4.678964E-08
v 0.1638895 -0.07879329 0.002388278
v 0.1638895 0.07879326 -7.45058E-10
v 0.1594025 -0.08328031 0.002388279
v -0.1593264 -0.08328026 4.813075E-08
v -0.1594025 -0.08328031 0.002388279
v 0.1594025 -0.08328026 4.813075E-08
v -0.1594025 -0.08328031 0.002388279
v -0.1638134 -0.07879326 4.664063E-08
v -0.1638895 -0.07879329 0.002388278
v -0.1593264 -0.08328026 4.813075E-08
v 0.1638895 -0.07879329 0.002388278
v 0.1594025 -0.08328026 4.813075E-08
v 0.1594025 -0.08328031 0.002388279
v 0.1638895 -0.07879326 4.678964E-08
v -0.1594025 0.08328026 0.002388254
v -0.1638895 0.07879326 0.002388255
v -0.1638134 0.07879333 -7.45058E-10
v -0.1593264 0.08328033 -2.235174E-09
v 0.1594025 0.08328018 0.002388254
v 0.1638895 0.07879326 -7.45058E-10
v 0.1638895 0.07879318 0.002388255
v 0.1594025 0.08328026 -2.235174E-09
v -0.1593264 -0.08328026 4.813075E-08
v 0.1594025 -0.08328026 4.813075E-08
v 0.1638895 -0.07879326 4.678964E-08
v -0.1638134 -0.07879326 4.664063E-08
v 0.1638895 0.07879326 -7.45058E-10
v -0.1638134 0.07879333 -7.45058E-10
v -0.1593264 0.08328033 -2.235174E-09
v 0.1594025 0.08328026 -2.235174E-09
vt 0.7813869 0.7472078
vt 0.7781836 0.7440034
vt 0.5504096 0.7440027
vt 0.5472037 0.7472075
vt 0.7813857 0.8597705
vt 0.5472041 0.8597703
vt 0.550413 0.8629779
vt 0.7781811 0.8629736
vt 0.6868895 0.3799147
vt 0.5844367 0.3799147
vt 0.5844367 0.3814674
vt 0.6868895 0.3814674
vt 0.6913594 0.5978683
vt 0.6913594 0.3843846
vt 0.6898067 0.3843847
vt 0.6898067 0.5978683
vt 0.6868895 0.6023381
vt 0.5844367 0.6007854
vt 0.5844367 0.6023381
vt 0.6868895 0.6007854
vt 0.5799668 0.5978682
vt 0.5815195 0.3843846
vt 0.5799668 0.3843846
vt 0.5815195 0.5978682
vt 0.5815195 0.3799147
vt 0.5844367 0.3814674
vt 0.5844367 0.3799147
vt 0.5815195 0.3814674
vt 0.5844367 0.6023381
vt 0.5815195 0.6007854
vt 0.5815195 0.6023381
vt 0.5844367 0.6007854
vt 0.6913594 0.3843846
vt 0.6913594 0.3814674
vt 0.6898067 0.3814674
vt 0.6898067 0.3843847
vt 0.6913594 0.5978683
vt 0.6898067 0.6007854
vt 0.6913594 0.6007854
vt 0.6898067 0.5978683
vt 0.5815195 0.3843846
vt 0.5815195 0.5978682
vt 0.5844367 0.6007854
vt 0.5844367 0.3814674
vt 0.6868895 0.6007854
vt 0.6868895 0.3814674
vt 0.6898067 0.3843847
vt 0.6898067 0.5978683
vn 0 1.503615E-07 1
vn 0 1.494427E-07 1
vn 0 1.494427E-07 1
vn 0 1.503616E-07 1
vn 0 1.586642E-07 1
vn 0 1.586641E-07 1
vn 0 1.743506E-07 1
vn 0 1.743506E-07 1
vn -0.9994926 0 -0.0318496
vn -0.9994926 0 -0.03184959
vn -0.9994926 0 -0.03184959
vn -0.9994926 0 -0.03184959
vn 2.393409E-07 1 3.194927E-05
vn 2.393409E-07 1 3.194927E-05
vn 2.393409E-07 1 3.194927E-05
vn 2.393409E-07 1 3.194927E-05
vn 1 0 0
vn 1 0 0
vn 1 0 0
vn 1 0 0
vn 0 -1 -2.395935E-05
vn 0 -1 -2.395935E-05
vn 0 -1 -2.395935E-05
vn 0 -1 -2.395935E-05
vn -0.7069234 -0.706931 -0.02253525
vn -0.7069234 -0.706931 -0.02253525
vn -0.7069235 -0.7069309 -0.02253525
vn -0.7069235 -0.7069309 -0.02253525
vn 0.7071075 -0.7071061 -1.413449E-05
vn 0.7071075 -0.7071059 -1.413449E-05
vn 0.7071075 -0.7071059 -1.413449E-05
vn 0.7071075 -0.7071061 -1.413449E-05
vn -0.7069233 0.7069324 -0.02249831
vn -0.7069233 0.7069324 -0.02249831
vn -0.7069233 0.7069324 -0.02249831
vn -0.7069233 0.7069324 -0.02249831
vn 0.7071068 0.7071068 2.261497E-05
vn 0.7071068 0.7071068 2.261497E-05
vn 0.7071068 0.7071068 2.261497E-05
vn 0.7071068 0.7071068 2.261497E-05
vn 0 -3.154915E-07 -1
vn 0 -3.154915E-07 -1
vn 0 -3.059432E-07 -1
vn 0 -3.059432E-07 -1
vn 0 -3.114782E-07 -1
vn 0 -3.114781E-07 -1
vn 0 -3.320964E-07 -1
vn 0 -3.320964E-07 -1
g LP_California_0
f 3/3/3 2/2/2 1/1/1
f 4/4/4 3/3/3 1/1/1
f 4/4/4 1/1/1 5/5/5
f 6/6/6 4/4/4 5/5/5
f 7/7/7 6/6/6 5/5/5
f 5/5/5 8/8/8 7/7/7
f 11/11/11 10/10/10 9/9/9
f 9/9/9 12/12/12 11/11/11
f 15/15/15 14/14/14 13/13/13
f 13/13/13 16/16/16 15/15/15
f 19/19/19 18/18/18 17/17/17
f 18/18/18 20/20/20 17/17/17
f 23/23/23 22/22/22 21/21/21
f 22/22/22 24/24/24 21/21/21
f 27/27/27 26/26/26 25/25/25
f 26/26/26 28/28/28 25/25/25
f 31/31/31 30/30/30 29/29/29
f 30/30/30 32/32/32 29/29/29
f 35/35/35 34/34/34 33/33/33
f 33/33/33 36/36/36 35/35/35
f 39/39/39 38/38/38 37/37/37
f 38/38/38 40/40/40 37/37/37
f 43/43/43 42/42/42 41/41/41
f 41/41/41 44/44/44 43/43/43
f 45/45/45 43/43/43 44/44/44
f 44/44/44 46/46/46 45/45/45
f 45/45/45 46/46/46 47/47/47
f 47/47/47 48/48/48 45/45/45
