# Blender 3.1.0
# www.blender.org
mtllib Wall 4.mtl
o Wall4
v 0.378930 5.046891 -2.967790
v 0.378930 -0.007011 -2.967790
v 0.378930 5.046891 2.967790
v 0.378930 -0.007011 2.967790
v -0.378930 5.046891 -2.967790
v -0.378930 -0.007011 -2.967790
v -0.378930 5.046891 2.967790
v -0.378930 -0.007011 2.967790
vn -0.0000 0.3789 -0.0000
vn -0.0000 -0.0000 0.3789
vn -0.3789 -0.0000 -0.0000
vn -0.0000 -0.3789 -0.0000
vn 0.3789 -0.0000 -0.0000
vn -0.0000 -0.0000 -0.3789
vt 0.774984 0.943574
vt 0.916501 0.504064
vt -0.011129 0.078916
vt 0.774984 0.337796
vt 0.916501 0.090986
vt 0.916501 0.989204
vt 0.975222 0.078916
vt 0.063525 0.943574
vt 0.521612 0.078916
vt 0.063525 0.337796
vt 0.063525 0.943574
vt 0.978445 0.504064
vt 0.063525 0.337796
vt -0.011129 0.010895
vt 0.978445 0.090986
vt 0.978445 0.989204
vt 0.975222 0.010895
vt 0.774984 0.943574
vt 0.774984 0.337796
vt 0.521612 0.010895
s 0
usemtl Wall_4
f 1/2/1 5/12/1 7/16/1 3/6/1
f 4/9/2 3/7/2 7/17/2 8/20/2
f 8/19/3 7/18/3 5/11/3 6/13/3
f 6/14/4 2/3/4 4/9/4 8/20/4
f 2/4/5 1/1/5 3/8/5 4/10/5
f 6/15/6 5/12/6 1/2/6 2/5/6
